<?xml version="1.0" encoding="utf-8"?>
<svg version="1.1" id="graphique_sol" xmlns="http://www.w3.org/2000/svg" xmlns:xlink="http://www.w3.org/1999/xlink" x="0px"
	 y="0px" width="400px"  height="350px" viewBox="0 0 400 350" enable-background="new 0 0 400 350" xml:space="preserve">
	 <style id="cssGraphique" type="text/css">
		@CHARSET "UTF-8";
		.fond {
		    fill:#F8F8F8;
		    stroke:#F8F8F8;
		    stroke-width:3;
		}
		.cartouche {
			fill:#F8F8F8;
			stroke-width:1.5;
		}
		.graduation {
			stroke:#000;
			stroke-width:1.5;
			stroke-dasharray:1,1;
			
		}
		.median {
			stroke:#000;
			stroke-width:1.5;
		}
		.ligne_grad {
			stroke:#88a842;
			stroke-width:3;
		}
		 .valeur {
		 fill:#964e75;
		 }
		.cache {
			fill:#F8F8F8;
		}
		.titre {
			fill:#000;
			font-family:"Muli", sans-serif;;
			font-size:13px;
		}
		.min_max {
			fill:#000; 
			font-family:"Muli", sans-serif;;
			font-size:11px;
		}
		/* pour faire apparaitre un curseur*/
		.curseur {
			fill:#EA6624; 
			stroke:#FFFFFF;
			stroke-width:3;
		}
		/* pour faire disparaitre un curseur*/
		.disparu {
			fill:none; 
			stroke:none;
			stroke-width:0;
		}
		</style>

<!--	Fond de l'image-->
	<rect id="fond" x="0px" y="0px" class="fond" width="400px" height="350px"/>

<!--	Lignes de base-->
	<line class="ligne_grad"  x1="140" y1="39" x2="380" y2="39"/>
	<line class="ligne_grad" x1="140" y1="73" x2="380" y2="73"/>
	<line class="ligne_grad" x1="140" y1="110" x2="380" y2="110"/>
	<line class="ligne_grad" x1="140" y1="148" x2="380" y2="148"/>
	<line class="ligne_grad" x1="140" y1="188" x2="380" y2="188"/>
	<line class="ligne_grad" x1="140" y1="225" x2="380" y2="225"/>
	<line class="ligne_grad" x1="140" y1="260" x2="380" y2="260"/>
	<line class="ligne_grad" x1="140" y1="295" x2="380" y2="295"/>

<!--Lignes de graduation de 1 à 9-->
	<line id="un" class="graduation"  x1="140" y1="33" x2="140" y2="300"/>
	<line id="deux" class="graduation"  x1="170" y1="33" x2="170" y2="180"/>
	<line id="trois" class="graduation"  x1="200" y1="33" x2="200" y2="180"/>
	<line id="quatre" class="graduation"  x1="230" y1="33" x2="230" y2="180"/>
	<line id="six" class="graduation"  x1="290" y1="33" x2="290" y2="180"/>
	<line id="sept" class="graduation"  x1="320" y1="33" x2="320" y2="180"/>
	<line id="huit" class="graduation"  x1="350" y1="33" x2="350" y2="180"/>
	<line id="neuf" class="graduation"  x1="380" y1="33" x2="380" y2="300"/>

	<line class="graduation"  x1="170" y1="210" x2="170" y2="300"/>
	<line class="graduation"  x1="200" y1="210" x2="200" y2="300"/>
	<line class="graduation"  x1="230" y1="210" x2="230" y2="300"/>
	<line class="graduation"  x1="290" y1="210" x2="290" y2="300"/>
	<line class="graduation"  x1="320" y1="210" x2="320" y2="300"/>
	<line class="graduation"  x1="350" y1="210" x2="350" y2="300"/>

<!--	Lignes de graduation de 1 à 12-->
	<line class="graduation"  x1="164" y1="180" x2="164" y2="210"/>
	<line class="graduation"  x1="188" y1="180" x2="188" y2="210"/>
	<line class="graduation"  x1="212" y1="180" x2="212" y2="210"/>
	<line class="graduation"  x1="236" y1="180" x2="236" y2="210"/>
	<line class="graduation"  x1="284" y1="180" x2="284" y2="210"/>
	<line class="graduation"  x1="308" y1="180" x2="308" y2="210"/>
	<line class="graduation"  x1="332" y1="180" x2="332" y2="210"/>
	<line class="graduation"  x1="356" y1="180" x2="356" y2="210"/>

<!--	Rectangles pour couper les lignes verticales de graduation-->
	<rect x="135" y="44.12" class="cache" width="440" height="23.061"/>
	<rect x="135" y="77.292" class="cache" width="440" height="26.314"/>
	<rect x="135" y="115.044" class="cache" width="440" height="28.484"/>
	<rect x="135" y="153.677" class="cache" width="440" height="29.293"/>
	<rect x="135" y="194.397" class="cache" width="440" height="25.322"/>
	<rect x="135" y="230" class="cache" width="440" height="25.322"/>
	<rect x="135" y="265" class="cache" width="440" height="25.322"/>

<!--	Texte à gauche-->
	<text transform="matrix(1 0 0 1 30 42)" class="titre">Lumière </text>
	<text transform="matrix(1 0 0 1 30 76)" class="titre">Humidité atm </text>
	<text transform="matrix(1 0 0 1 30 113)" class="titre">Continentalité </text>
	<text transform="matrix(1 0 0 1 30 151)" class="titre">Réaction (pH) </text>
	<text transform="matrix(1 0 0 1 30 191)" class="titre">Humidité du sol</text>
	<text transform="matrix(1 0 0 1 30 228)" class="titre">Texture du sol</text>
	<text transform="matrix(1 0 0 1 30 263)" class="titre">Richesse en N</text>
	<text transform="matrix(1 0 0 1 30 298)" class="titre">Salinité</text>

<!--	Texte des niveaux-->
	<text transform="matrix(1 0 0 1 140 29.1284)"  class="min_max">ombre</text>
	<text transform="matrix(1 0 0 1 340 27.6206)"  class="min_max">lumière</text>
	<text transform="matrix(1 0 0 1 140 61.4976)" class="min_max">sec</text>
	<text transform="matrix(1 0 0 1 340 63.1626)"  class="min_max">humide</text>
	<text transform="matrix(1 0 0 1 140 98.3706)"  class="min_max">marine</text>
	<text transform="matrix(1 0 0 1 290 98.3706)" class="min_max">hypercontinentale</text>
	<text transform="matrix(1 0 0 1 140 133.9976)"  class="min_max">acide</text>
	<text transform="matrix(1 0 0 1 340 136.604)"  class="min_max">basique</text>
	<text transform="matrix(1 0 0 1 140 177.8887)"  class="min_max">sec</text>
	<text transform="matrix(1 0 0 1 330 176.3809)"  class="min_max">aquatique</text>
	<text transform="matrix(1 0 0 1 140 211.0957)" class="min_max">argile</text>
	<text transform="matrix(1 0 0 1 350 212.7617)"  class="min_max">parois</text>
	<text transform="matrix(1 0 0 1 140 250)" class="min_max">pauvre</text>
	<text transform="matrix(1 0 0 1 355 250)"  class="min_max">riche</text>
	<text transform="matrix(1 0 0 1 140 285)" class="min_max">hyperoligohalines</text>
	<text transform="matrix(1 0 0 1 320 285)"  class="min_max">très tolérant</text>

<!--Lignes du milieu-->
	<line class="median"  x1="260" y1="252.5" x2="260" y2="267.5"/>
	<line class="median"  x1="260" y1="287.5" x2="260" y2="302.5"/>
	<line id="cinq" class="median"  x1="260" y1="218.481" x2="260" y2="233.049"/>
	<line class="median"  x1="260" y1="180.033" x2="260" y2="195.11"/>
	<line class="median"  x1="260" y1="140.767" x2="260" y2="155.845"/>
	<line class="median"  x1="260" y1="102.091" x2="260" y2="117.17"/>
	<line class="median"  x1="260" y1="65.391" x2="260" y2="80.469"/>
	<line class="median"  x1="260" y1="31.509" x2="260" y2="46.588"/>

</svg>
