<?xml version="1.0" encoding="utf-8"?>
<!-- Svg Vector Icons : http://www.onlinewebfonts.com/icon -->
<!DOCTYPE svg PUBLIC "-//W3C//DTD SVG 1.1//EN" "http://www.w3.org/Graphics/SVG/1.1/DTD/svg11.dtd">
<svg version="1.1" xmlns="http://www.w3.org/2000/svg" xmlns:xlink="http://www.w3.org/1999/xlink" x="0px" y="0px" viewBox="0 0 256 256" enable-background="new 0 0 256 256" xml:space="preserve">
<metadata> Svg Vector Icons : http://www.onlinewebfonts.com/icon </metadata>
<g><g><path fill="#000000" d="M160,127.9l79.2,79.2c9,9,9,22.9,0,32c-4.2,4.2-10.4,7-16,7c-5.6,0-11.8-2.8-16-7L128,159.9l-79.2,79.2c-4.2,4.2-10.4,7-16,7s-11.8-2.8-16-7c-9-9-9-22.9,0-32L96,127.9L16.8,48.7c-9-9.1-9-22.9,0-32s22.9-9,32,0L128,95.9l79.2-79.2c9-9,22.9-9,32,0s9,22.9,0,32L160,127.9L160,127.9z"/></g></g>
</svg>