<svg id="Ecologie" xmlns="http://www.w3.org/2000/svg" xmlns:xlink="http://www.w3.org/1999/xlink" width="30" height="28.86" viewBox="0 0 30 28.86">
  <defs>
    <clipPath id="clip-path">
      <rect id="Rectangle_40" data-name="Rectangle 40" width="30" height="9.725" transform="translate(0 0)" fill="#964e75"/>
    </clipPath>
  </defs>
  <g id="Groupe_17" data-name="Groupe 17" transform="translate(-1884.775 -1594.469)">
    <path id="Tracé_31" data-name="Tracé 31" d="M1906.351,1660.769s-3.716.413-6.729-4.169c-.867-1.652-.5-3.385-1.4-5.367.5-.289,11.6.784,9.207,8.835-.083-2.395-2.271-5.9-6.317-7.307C1906.31,1656.186,1906.351,1660.769,1906.351,1660.769Z" transform="translate(0 -48.589)" fill="#8e9f31"/>
    <path id="Tracé_32" data-name="Tracé 32" d="M1943.421,1603.1s1.239-5.408,9-8.628c.054,1.288.991,6.11.991,6.11a10.764,10.764,0,0,1-6.151,11.064c1.135-3.811-.743-5.7-.743-5.7a16,16,0,0,1,3.22-7.762c-.66.165-3.963,3.261-4.293,6.44A6.368,6.368,0,0,0,1943.421,1603.1Z" transform="translate(-38.721)" fill="#964e75"/>
  </g>
  <g id="Groupe_50" data-name="Groupe 50" transform="translate(0 19.135)">
    <g id="Groupe_49" data-name="Groupe 49" transform="translate(0 0)" clip-path="url(#clip-path)">
      <path id="Tracé_303" data-name="Tracé 303" d="M0,9.725V3.54c.825,0,1.627-.027,2.426.006a4.634,4.634,0,0,0,3.6-1.4A7.8,7.8,0,0,1,12.037,0c2.187.06,4.371.241,6.556.373.9.054,1.666.3,1.58,1.424-.083,1.085-.88,1.13-1.711,1.117s-1.637,0-2.6,0a2.243,2.243,0,0,0,1.853,2.149A13.9,13.9,0,0,0,24.551,4.9c1.109-.229,2.229-.4,3.333-.649.882-.2,1.686-.207,2.028.805.366,1.086-.486,1.46-1.232,1.8C23.523,9.209,18.244,10.56,12.555,8.926c-1.42-.408-2.921-.521-4.37-.836-2.23-.485-4.237.342-6.279.985-.591.186-1.172.4-1.906.65" transform="translate(0 0)" fill="#964e75"/>
    </g>
  </g>
</svg>
