<svg id="Feuilles" xmlns="http://www.w3.org/2000/svg" width="30" height="32.11" viewBox="0 0 30 32.11">
  <path id="Tracé_31" data-name="Tracé 31" d="M1912.955,1668.546s-6.733.748-12.193-7.555c-1.571-2.992-.9-6.134-2.543-9.725.9-.524,21.021,1.421,16.682,16.009-.15-4.339-4.115-10.7-11.446-13.241C1912.881,1660.242,1912.955,1668.546,1912.955,1668.546Z" transform="translate(-1898.219 -1636.453)" fill="#8e9f31"/>
  <path id="Tracé_32" data-name="Tracé 32" d="M1943.421,1610.1s2.244-9.8,16.308-15.635c.1,2.334,1.8,11.072,1.8,11.072s2.319,13.091-11.146,20.048c2.057-6.9-1.347-10.323-1.347-10.323a28.987,28.987,0,0,1,5.835-14.064c-1.2.3-7.182,5.91-7.78,11.67A11.539,11.539,0,0,0,1943.421,1610.1Z" transform="translate(-1931.676 -1594.469)" fill="#964e75"/>
</svg>
