<svg id="Fleur_Male" data-name="Fleur Male" xmlns="http://www.w3.org/2000/svg" xmlns:xlink="http://www.w3.org/1999/xlink" width="26.281" height="33.338" viewBox="0 0 26.281 33.338">
  <defs>
    <clipPath id="clip-path">
      <rect id="Rectangle_57" data-name="Rectangle 57" width="26.281" height="33.338" fill="none"/>
    </clipPath>
  </defs>
  <g id="Groupe_127" data-name="Groupe 127" clip-path="url(#clip-path)">
    <path id="Tracé_407" data-name="Tracé 407" d="M44.879,63.743a6.371,6.371,0,1,1-8.1-3.94,6.371,6.371,0,0,1,8.1,3.94" transform="translate(-25.503 -46.673)" fill="#fff"/>
    <path id="Tracé_408" data-name="Tracé 408" d="M39.968,60.1a5.3,5.3,0,1,1-6.781-3.19,5.367,5.367,0,0,1,6.781,3.19c.478,1.285,2.556.729,2.073-.571a7.439,7.439,0,0,0-13.995-.322,7.443,7.443,0,1,0,13.995.322c-.42-1.312-2.5-.751-2.073.571" transform="translate(-21.627 -42.746)" fill="#8e9f31"/>
    <path id="Tracé_409" data-name="Tracé 409" d="M72.758,16.4,79.421,4.583A1.076,1.076,0,0,0,77.565,3.5L70.9,15.32A1.076,1.076,0,0,0,72.758,16.4" transform="translate(-55.547 -2.334)" fill="#8e9f31"/>
    <path id="Tracé_410" data-name="Tracé 410" d="M76.288,4.908l5.8-1.934C83.4,2.538,82.837.462,81.52.9l-5.8,1.934c-1.306.435-.746,2.512.571,2.073" transform="translate(-58.859 -0.659)" fill="#8e9f31"/>
    <path id="Tracé_411" data-name="Tracé 411" d="M107.016,7.01,105.942.777c-.234-1.36-2.306-.784-2.073.571l1.075,6.233c.234,1.361,2.306.784,2.073-.571" transform="translate(-81.529 0)" fill="#8e9f31"/>
    <path id="Tracé_412" data-name="Tracé 412" d="M26.208,39.548a5.163,5.163,0,0,0-2.822-3.815,5.165,5.165,0,0,0,2.487-6.62A5.014,5.014,0,0,0,22.631,26.2a5.129,5.129,0,0,0-1.095-.21L19.32,29.542a8.7,8.7,0,1,1-4.276-2.294l2.3-3.682A5.137,5.137,0,0,0,8,26.827a5.238,5.238,0,0,0-4.079-.694,4.981,4.981,0,0,0-3.3,2.544A4.886,4.886,0,0,0,.111,32.1a5.171,5.171,0,0,0,2.817,3.627A5.16,5.16,0,0,0,.285,38.709a5.111,5.111,0,0,0,2.763,6.317A5.2,5.2,0,0,0,8,44.634,5.217,5.217,0,0,0,13,50.1a5.238,5.238,0,0,0,5.3-5.475,5.134,5.134,0,0,0,4,.714,4.963,4.963,0,0,0,3.286-2.43,4.89,4.89,0,0,0,.62-3.363" transform="translate(0 -16.765)" fill="#964e75"/>
  </g>
</svg>
