<svg id="Fleur_Femelle" data-name="Fleur Femelle" xmlns="http://www.w3.org/2000/svg" xmlns:xlink="http://www.w3.org/1999/xlink" width="27.893" height="41.038" viewBox="0 0 27.893 41.038">
  <defs>
    <clipPath id="clip-path">
      <rect id="Rectangle_59" data-name="Rectangle 59" width="27.893" height="41.038" fill="none"/>
    </clipPath>
  </defs>
  <g id="Groupe_129" data-name="Groupe 129" clip-path="url(#clip-path)">
    <path id="Tracé_413" data-name="Tracé 413" d="M56.553,97.491v16.846a1.141,1.141,0,0,0,2.281,0V97.491a1.141,1.141,0,0,0-2.281,0" transform="translate(-43.652 -74.401)" fill="#8e9f31"/>
    <path id="Tracé_414" data-name="Tracé 414" d="M29.106,140.977H42.225a1.141,1.141,0,0,0,0-2.281H29.106a1.141,1.141,0,0,0,0,2.281" transform="translate(-21.616 -107.056)" fill="#8e9f31"/>
    <path id="Tracé_415" data-name="Tracé 415" d="M45.678,42.631A6.508,6.508,0,1,1,37.4,38.606a6.508,6.508,0,0,1,8.277,4.025" transform="translate(-25.485 -29.522)" fill="#fff"/>
    <path id="Tracé_416" data-name="Tracé 416" d="M40.768,39.072a5.37,5.37,0,1,1-6.874-3.228,5.44,5.44,0,0,1,6.874,3.228c.508,1.363,2.714.774,2.2-.606A7.8,7.8,0,0,0,36,33.25a7.649,7.649,0,1,0,6.964,5.215c-.445-1.393-2.648-.8-2.2.606" transform="translate(-21.675 -25.66)" fill="#8e9f31"/>
    <path id="Tracé_417" data-name="Tracé 417" d="M27.816,19.308a5.48,5.48,0,0,0-2.995-4.049,5.482,5.482,0,0,0,2.64-7.026,5.321,5.321,0,0,0-3.442-3.087,5.533,5.533,0,0,0-4.619.669A5.468,5.468,0,1,0,8.487,5.806a5.559,5.559,0,0,0-4.33-.736,5.286,5.286,0,0,0-3.5,2.7A5.186,5.186,0,0,0,.118,11.4a5.489,5.489,0,0,0,2.99,3.85A5.476,5.476,0,0,0,.3,18.418a5.425,5.425,0,0,0,2.933,6.7,5.522,5.522,0,0,0,5.254-.416,5.557,5.557,0,0,0,2.421,4.849H11.4V24.126a9.234,9.234,0,1,1,5.059.006v5.422h.521a5.6,5.6,0,0,0,2.44-4.856,5.449,5.449,0,0,0,4.246.758,5.268,5.268,0,0,0,3.488-2.579,5.19,5.19,0,0,0,.658-3.57" transform="translate(0 0.001)" fill="#964e75"/>
  </g>
</svg>
