<svg id="Floraison" xmlns="http://www.w3.org/2000/svg" xmlns:xlink="http://www.w3.org/1999/xlink" width="29.989" height="29.903" viewBox="0 0 29.989 29.903">
  <defs>
    <clipPath id="clip-path">
      <rect id="Rectangle_39" data-name="Rectangle 39" width="29.989" height="29.903" fill="#d0d0d2"/>
    </clipPath>
  </defs>
  <g id="Groupe_47" data-name="Groupe 47" clip-path="url(#clip-path)">
    <path id="Tracé_300" data-name="Tracé 300" d="M13.868,29.55a22.615,22.615,0,0,1-3.269.35,4.857,4.857,0,0,1-4.663-3.582,2.957,2.957,0,0,0-2.18-2.283A5.142,5.142,0,0,1,.648,16.544a3.02,3.02,0,0,0-.019-3.15A5.168,5.168,0,0,1,3.813,5.915,2.744,2.744,0,0,0,5.921,3.886,5.162,5.162,0,0,1,13.546.692,2.7,2.7,0,0,0,16.465.7,5.157,5.157,0,0,1,24.09,3.9a2.812,2.812,0,0,0,2.085,2.052,5.165,5.165,0,0,1,3.1,7.663,2.8,2.8,0,0,0,.062,2.94c1.584,3.2.1,6.416-3.278,7.676a3.184,3.184,0,0,0-1.746,1.431c-1.633,3.927-3.567,4.914-8.423,3.7a8.53,8.53,0,0,0-2.022.187M15.079,9.1a5.867,5.867,0,0,0-6.029,5.79,5.927,5.927,0,1,0,11.851.22A5.882,5.882,0,0,0,15.079,9.1" transform="translate(0 0)" fill="#8E9F31"/>
    <path id="Tracé_302" data-name="Tracé 302" d="M56.586,53.2a3.955,3.955,0,1,1-7.907-.154,3.955,3.955,0,0,1,7.907.154" transform="translate(-37.67 -38.124)" fill="#8E9F31"/>
  </g>
</svg>
