<svg id="Fructification" xmlns="http://www.w3.org/2000/svg" xmlns:xlink="http://www.w3.org/1999/xlink" width="27.894" height="35.927" viewBox="0 0 27.894 35.927">
  <defs>
    <clipPath id="clip-path">
      <rect id="Rectangle_49" data-name="Rectangle 49" width="27.893" height="35.926" fill="#d0d0d2"/>
    </clipPath>
  </defs>
  <g id="Groupe_103" data-name="Groupe 103" clip-path="url(#clip-path)">
    <path id="Tracé_368" data-name="Tracé 368" d="M14.017,38.961a9.63,9.63,0,0,1-1.422-.543,6.173,6.173,0,0,1-1.1-.908.313.313,0,0,0-.386-.092,4,4,0,0,1-5.2-2.155.635.635,0,0,0-.288-.317,4.031,4.031,0,0,1-2.37-4.8.476.476,0,0,0,0-.092c-.071-.039-.147-.088-.23-.125a3.984,3.984,0,0,1-1.94-5.511.343.343,0,0,0-.057-.456,4,4,0,0,1,.1-5.453.561.561,0,0,0,.151-.387,4.033,4.033,0,0,1,1.537-3.732c.351.251.687.5,1.032.738a1.9,1.9,0,0,0,2.646-.307,1.5,1.5,0,0,1,2.491-.008A1.968,1.968,0,0,0,12.1,14.8a1.481,1.481,0,0,1,2.252-.223,3.7,3.7,0,0,1,.424.511,1.843,1.843,0,0,0,3.252-.419,1.528,1.528,0,0,1,2.1-.979,1.887,1.887,0,0,1,.622.492,1.907,1.907,0,0,0,3.036.3c.119-.1.238-.188.373-.295a3.921,3.921,0,0,1,1.8,2.69.889.889,0,0,0,.369.627,4.014,4.014,0,0,1,.654,5.714c-.059.071-.119.142-.147.175a12.392,12.392,0,0,1,.809,1.521,3.945,3.945,0,0,1-1.468,4.625.4.4,0,0,0-.2.459,4,4,0,0,1-2.736,4.4.678.678,0,0,0-.524.518A4,4,0,0,1,18.011,37.6a.542.542,0,0,0-.608.172,3.809,3.809,0,0,1-2.138,1.12,1.271,1.271,0,0,0-.194.066ZM9.413,30.4a3.01,3.01,0,0,0,2.871-1.876c.182-.424.089-.771-.248-.929s-.651-.012-.876.4a2.662,2.662,0,0,1-.442.663,1.839,1.839,0,0,1-1.893.406A1.8,1.8,0,0,1,7.491,27.51c-.073-.433-.37-.666-.713-.6-.366.068-.546.357-.494.8A3.09,3.09,0,0,0,9.413,30.4m4.677,5.062a3.2,3.2,0,0,0,3.3-3.8c-.1-.441-.378-.686-.741-.617s-.514.377-.483.834A2.752,2.752,0,0,1,16.088,33a1.926,1.926,0,0,1-3.124.672c-.363-.386-.728-.406-1-.117s-.23.625.144,1.01a2.854,2.854,0,0,0,1.987.891M18.525,17.9A3.19,3.19,0,0,0,20.39,20.78a3.06,3.06,0,0,0,3.375-.445c.433-.392.518-.745.256-1.054s-.632-.275-1.089.128a1.734,1.734,0,0,1-1.533.411,1.943,1.943,0,0,1-1.54-2.447.584.584,0,0,0-.447-.781.618.618,0,0,0-.746.518c-.062.261-.1.528-.141.792m1.2,12.126a10,10,0,0,0,1.148-.282A3.09,3.09,0,0,0,22.8,25.981a.611.611,0,0,0-.58-.518.539.539,0,0,0-.6.39,1.31,1.31,0,0,0,.019.584,1.77,1.77,0,0,1-.431,1.627,1.92,1.92,0,0,1-2.783.14.6.6,0,0,0-.955-.047c-.252.275-.21.634.123.956a3.284,3.284,0,0,0,2.132.918m-4.7-5.412c.119-.012.307-.021.49-.053A2.945,2.945,0,0,0,17.9,22.637a.606.606,0,0,0-.226-.8.567.567,0,0,0-.74.082,1.492,1.492,0,0,0-.25.417,1.717,1.717,0,0,1-1.041.932,1.935,1.935,0,0,1-2.563-1.513.629.629,0,0,0-.759-.629c-.361.074-.523.4-.457.853a3.142,3.142,0,0,0,3.156,2.638M6.868,22.333a3.115,3.115,0,0,0,2.261-1.048,2.93,2.93,0,0,0,.7-2.959.609.609,0,0,0-1-.365.659.659,0,0,0-.17.739,1.72,1.72,0,0,1-.237,1.505,1.929,1.929,0,0,1-2.929.371c-.353-.348-.725-.349-.983-.057s-.214.622.133.955a3.051,3.051,0,0,0,2.229.858" transform="translate(0 -3.033)" fill="#d0d0d2"/>
    <path id="Tracé_369" data-name="Tracé 369" d="M9.091,5.558c.265-.72.478-1.451.8-2.132A7.037,7.037,0,0,1,13.277.053a.893.893,0,0,1,.693.038,7.363,7.363,0,0,1,3.991,5.254A1.337,1.337,0,0,0,18,5.48a.108.108,0,0,0,.019.036c.584-.192,1.156-.411,1.745-.566A8.546,8.546,0,0,1,23.626,5c.687.133,1.36.339,2.033.532a.657.657,0,0,1,.5.989,8.8,8.8,0,0,1-3.142,4.125c-.375.281-.7.21-1.019-.211a2.783,2.783,0,0,0-4.776.442c-.048.106-.087.217-.138.322a.628.628,0,0,1-1.126.109,4.9,4.9,0,0,0-1.065-1.038,2.7,2.7,0,0,0-3.487.625c-.487.573-.825.571-1.322-.01a2.761,2.761,0,0,0-4.223-.022c-.433.5-.643.52-1.194.147A9.144,9.144,0,0,1,1.042,6.576C.827,6,.966,5.67,1.569,5.524c1.076-.261,2.153-.544,3.247-.7a6.742,6.742,0,0,1,4.275.733" transform="translate(-0.212 0)" fill="#d0d0d2"/>
  </g>
</svg>
