<svg id="Fruits" xmlns="http://www.w3.org/2000/svg" xmlns:xlink="http://www.w3.org/1999/xlink" width="25.078" height="32.3" viewBox="0 0 25.078 32.3">
  <defs>
    <clipPath id="clip-path">
      <rect id="Rectangle_49" data-name="Rectangle 49" width="25.078" height="32.3" fill="#964e75"/>
    </clipPath>
  </defs>
  <g id="Groupe_103" data-name="Groupe 103" clip-path="url(#clip-path)">
    <path id="Tracé_368" data-name="Tracé 368" d="M12.6,36.394a8.659,8.659,0,0,1-1.279-.488,5.55,5.55,0,0,1-.99-.816.281.281,0,0,0-.347-.083,3.592,3.592,0,0,1-4.676-1.937.571.571,0,0,0-.259-.285,3.624,3.624,0,0,1-2.131-4.319.428.428,0,0,0,0-.082c-.063-.035-.133-.079-.207-.112A3.582,3.582,0,0,1,.972,23.316a.308.308,0,0,0-.051-.41A3.6,3.6,0,0,1,1.012,18a.5.5,0,0,0,.135-.348A3.626,3.626,0,0,1,2.529,14.3c.315.226.617.451.928.663a1.708,1.708,0,0,0,2.379-.276,1.346,1.346,0,0,1,2.239-.007,1.77,1.77,0,0,0,2.805-.01,1.331,1.331,0,0,1,2.025-.2,3.325,3.325,0,0,1,.381.46,1.657,1.657,0,0,0,2.924-.377,1.374,1.374,0,0,1,1.891-.88,1.7,1.7,0,0,1,.559.442,1.715,1.715,0,0,0,2.729.272c.107-.086.214-.169.336-.265a3.525,3.525,0,0,1,1.616,2.418.8.8,0,0,0,.331.564,3.609,3.609,0,0,1,.588,5.137c-.053.064-.107.128-.133.157a11.141,11.141,0,0,1,.728,1.367,3.547,3.547,0,0,1-1.32,4.158.359.359,0,0,0-.18.413,3.6,3.6,0,0,1-2.46,3.957.61.61,0,0,0-.471.466,3.593,3.593,0,0,1-4.231,2.414.488.488,0,0,0-.547.155,3.424,3.424,0,0,1-1.922,1.007,1.142,1.142,0,0,0-.174.059Zm-4.14-7.7a2.706,2.706,0,0,0,2.581-1.686c.163-.382.08-.693-.223-.835s-.585-.011-.788.361a2.393,2.393,0,0,1-.4.6,1.653,1.653,0,0,1-1.7.365,1.615,1.615,0,0,1-1.2-1.4c-.066-.389-.333-.6-.641-.543-.329.061-.491.321-.444.715A2.778,2.778,0,0,0,8.463,28.7m4.2,4.551a2.873,2.873,0,0,0,2.967-3.417c-.09-.4-.34-.617-.666-.555s-.462.339-.434.75a2.474,2.474,0,0,1-.07,1.014,1.731,1.731,0,0,1-2.809.6c-.326-.347-.654-.365-.9-.105s-.207.562.129.908a2.566,2.566,0,0,0,1.787.8m3.988-15.782a2.868,2.868,0,0,0,1.676,2.585,2.751,2.751,0,0,0,3.034-.4c.389-.352.466-.67.23-.947s-.568-.247-.979.115a1.559,1.559,0,0,1-1.378.37,1.747,1.747,0,0,1-1.384-2.2.525.525,0,0,0-.4-.7.555.555,0,0,0-.67.466c-.056.234-.086.474-.127.712m1.08,10.9a8.99,8.99,0,0,0,1.033-.253A2.778,2.778,0,0,0,20.5,24.725a.549.549,0,0,0-.521-.466.485.485,0,0,0-.536.35,1.178,1.178,0,0,0,.017.525A1.592,1.592,0,0,1,19.07,26.6a1.726,1.726,0,0,1-2.5.126.544.544,0,0,0-.859-.042c-.227.247-.189.57.11.86a2.953,2.953,0,0,0,1.916.825M13.507,23.5c.107-.011.276-.019.441-.047A2.647,2.647,0,0,0,16.1,21.719a.545.545,0,0,0-.2-.719.51.51,0,0,0-.665.074,1.342,1.342,0,0,0-.225.375,1.544,1.544,0,0,1-.936.838,1.74,1.74,0,0,1-2.3-1.36.565.565,0,0,0-.682-.565c-.324.066-.47.362-.411.767A2.825,2.825,0,0,0,13.507,23.5M6.174,21.445A2.8,2.8,0,0,0,8.207,20.5a2.634,2.634,0,0,0,.629-2.66.547.547,0,0,0-.9-.328.593.593,0,0,0-.153.664,1.546,1.546,0,0,1-.213,1.353,1.734,1.734,0,0,1-2.634.333c-.317-.313-.652-.314-.884-.052s-.193.56.119.859a2.743,2.743,0,0,0,2,.772" transform="translate(0 -4.094)" fill="#964e75"/>
    <path id="Tracé_369" data-name="Tracé 369" d="M8.269,5c.239-.647.43-1.3.716-1.917A6.327,6.327,0,0,1,12.033.048a.8.8,0,0,1,.623.034,6.62,6.62,0,0,1,3.588,4.724,1.2,1.2,0,0,0,.036.121.1.1,0,0,0,.017.032c.525-.172,1.039-.37,1.569-.509a7.683,7.683,0,0,1,3.471.043c.617.12,1.222.3,1.828.479a.59.59,0,0,1,.451.889A7.91,7.91,0,0,1,20.79,9.57c-.337.253-.63.189-.916-.19a2.5,2.5,0,0,0-4.294.4c-.043.1-.078.2-.124.29a.564.564,0,0,1-1.012.1,4.409,4.409,0,0,0-.957-.933,2.429,2.429,0,0,0-3.135.562c-.437.516-.742.513-1.189-.009a2.482,2.482,0,0,0-3.8-.02c-.389.447-.578.467-1.074.132a8.221,8.221,0,0,1-3.26-3.984C.84,5.393.964,5.1,1.506,4.966c.968-.234,1.936-.489,2.92-.629A6.062,6.062,0,0,1,8.269,5" transform="translate(-0.286 0)" fill="#8e9f31"/>
  </g>
</svg>
