<svg xmlns="http://www.w3.org/2000/svg" xmlns:xlink="http://www.w3.org/1999/xlink" width="803" height="324" viewBox="0 0 803 324">
  <defs>
    <clipPath id="clip-path">
      <rect id="Rectangle_101" data-name="Rectangle 101" width="803" height="324" transform="translate(-4 -4)" fill="none" stroke="#707070" stroke-width="1"/>
    </clipPath>
    <clipPath id="clip-path-2">
      <rect id="Rectangle_99" data-name="Rectangle 99" width="888" height="372" transform="translate(-50 -61)" fill="#fff" stroke="#707070" stroke-width="1"/>
    </clipPath>
  </defs>
  <g id="Groupe_de_masques_62" data-name="Groupe de masques 62" transform="translate(4 4)" clip-path="url(#clip-path)">
    <g id="Groupe_de_masques_60" data-name="Groupe de masques 60" clip-path="url(#clip-path-2)">
      <path id="Union_6" data-name="Union 6" d="M-1601.3-6618.364c-185.913-29.306-196.7-92.728-196.7-157.135,0-33.432,33.875-64.625,92.479-91-58.6-26.375-92.479-57.568-92.479-91,0-94.717,271.987-171.5,607.5-171.5S-583-7052.217-583-6957.5c0,33.432-33.875,64.625-92.479,91,58.6,26.375,92.479,57.568,92.479,91,0,71.984-264.856,139.3-264.856,139.3s-271.406,34.976-351.928,34.976C-1307.148-6601.219-1406.957-6633.036-1601.3-6618.364Z" transform="translate(1587.981 6904)" fill="#f8f5ef"/>
    </g>
    <path id="Tracé_427" data-name="Tracé 427" d="M10171.6,7965.228s30.436,91.625,104.857,16,94.553-52.344,131.059-62.772,50.312-69.489,32.059-90.842-76.166-71.485-120.98-10.718-44.272,94.6-101.73,101.561S10171.6,7965.228,10171.6,7965.228Z" transform="matrix(-0.966, -0.259, 0.259, -0.966, 8528.941, 10308.332)" fill="#c6d26e"/>
    <path id="Tracé_429" data-name="Tracé 429" d="M10171.6,7965.228s30.436,91.625,104.857,16,94.553-52.344,131.059-62.772,50.312-69.489,32.059-90.842-76.166-71.485-120.98-10.718-44.272,94.6-101.73,101.561S10171.6,7965.228,10171.6,7965.228Z" transform="matrix(0.809, 0.588, -0.588, 0.809, -2951.013, -12220.394)" fill="#964e75"/>
    <g id="Tracé_418" data-name="Tracé 418" transform="translate(524.981 -64)" fill="none">
      <path d="M168,0A168,168,0,1,1,0,168,168,168,0,0,1,168,0Z" stroke="none"/>
      <path d="M 168 2 C 156.7358245849609 2 145.4792785644531 3.134674072265625 134.5430908203125 5.37255859375 C 123.8858642578125 7.553375244140625 113.4030914306641 10.807373046875 103.3859100341797 15.04428100585938 C 93.55018615722656 19.2044677734375 84.06341552734375 24.35366821289062 75.18923950195312 30.3489990234375 C 66.39877319335938 36.28768920898438 58.13259887695312 43.10791015625 50.62026977539062 50.62026977539062 C 43.10791015625 58.13259887695312 36.28768920898438 66.39877319335938 30.3489990234375 75.18923950195312 C 24.35366821289062 84.06341552734375 19.2044677734375 93.55018615722656 15.04428100585938 103.3859100341797 C 10.807373046875 113.4030914306641 7.553375244140625 123.8858642578125 5.37255859375 134.5430908203125 C 3.134674072265625 145.4792785644531 2 156.7358245849609 2 168 C 2 179.2641754150391 3.134674072265625 190.5207214355469 5.37255859375 201.4569091796875 C 7.553375244140625 212.1141357421875 10.807373046875 222.5969085693359 15.04428100585938 232.6140899658203 C 19.2044677734375 242.4498291015625 24.35366821289062 251.9365844726562 30.3489990234375 260.810791015625 C 36.28768920898438 269.6012268066406 43.10791015625 277.8674011230469 50.62026977539062 285.3797302246094 C 58.13259887695312 292.89208984375 66.39877319335938 299.7123107910156 75.18923950195312 305.6510009765625 C 84.06341552734375 311.6463317871094 93.55018615722656 316.7955322265625 103.3859100341797 320.9557189941406 C 113.4030914306641 325.192626953125 123.8858642578125 328.4466247558594 134.5430908203125 330.62744140625 C 145.4792785644531 332.8653259277344 156.7358245849609 334 168 334 C 179.2641754150391 334 190.5207214355469 332.8653259277344 201.4569091796875 330.62744140625 C 212.1141357421875 328.4466247558594 222.5969085693359 325.192626953125 232.6140899658203 320.9557189941406 C 242.4498291015625 316.7955322265625 251.9365844726562 311.6463317871094 260.810791015625 305.6510009765625 C 269.6012268066406 299.7123107910156 277.8674011230469 292.89208984375 285.3797302246094 285.3797302246094 C 292.89208984375 277.8674011230469 299.7123107910156 269.6012268066406 305.6510009765625 260.810791015625 C 311.6463317871094 251.9365844726562 316.7955322265625 242.4498291015625 320.9557189941406 232.6140899658203 C 325.192626953125 222.5969085693359 328.4466247558594 212.1141357421875 330.62744140625 201.4569091796875 C 332.8653259277344 190.5207214355469 334 179.2641754150391 334 168 C 334 156.7358245849609 332.8653259277344 145.4792785644531 330.62744140625 134.5430908203125 C 328.4466247558594 123.8858642578125 325.192626953125 113.4030914306641 320.9557189941406 103.3859100341797 C 316.7955322265625 93.55018615722656 311.6463317871094 84.06341552734375 305.6510009765625 75.18923950195312 C 299.7123107910156 66.39877319335938 292.89208984375 58.13259887695312 285.3797302246094 50.62026977539062 C 277.8674011230469 43.10791015625 269.6012268066406 36.28768920898438 260.810791015625 30.3489990234375 C 251.9365844726562 24.35366821289062 242.4498291015625 19.2044677734375 232.6140899658203 15.04428100585938 C 222.5969085693359 10.807373046875 212.1141357421875 7.553375244140625 201.4569091796875 5.37255859375 C 190.5207214355469 3.134674072265625 179.2641754150391 2 168 2 M 168 0 C 260.7838745117188 0 336 75.21612548828125 336 168 C 336 260.7838745117188 260.7838745117188 336 168 336 C 75.21612548828125 336 0 260.7838745117188 0 168 C 0 75.21612548828125 75.21612548828125 0 168 0 Z" stroke="none" fill="#fff"/>
    </g>
    <g id="Tracé_432" data-name="Tracé 432" transform="translate(521.981 -108)" fill="none">
      <path d="M188,0C291.83,0,376,84.17,376,188S291.83,376,188,376,0,291.83,0,188,84.17,0,188,0Z" stroke="none"/>
      <path d="M 188 2 C 175.3788452148438 2 162.7661437988281 3.271392822265625 150.5124053955078 5.778900146484375 C 138.571044921875 8.222442626953125 126.8251495361328 11.86856079101562 115.6010131835938 16.61599731445312 C 104.5802001953125 21.27740478515625 93.95040893554688 27.04705810546875 84.00698852539062 33.76470947265625 C 74.15756225585938 40.41885375976562 64.8955078125 48.06076049804688 56.4781494140625 56.4781494140625 C 48.06076049804688 64.8955078125 40.41885375976562 74.15756225585938 33.76470947265625 84.00698852539062 C 27.04705810546875 93.95040893554688 21.27740478515625 104.5802001953125 16.61599731445312 115.6010131835938 C 11.86856079101562 126.8251495361328 8.222442626953125 138.571044921875 5.778900146484375 150.5124053955078 C 3.271392822265625 162.7661437988281 2 175.3788452148438 2 188 C 2 200.6211547851562 3.271392822265625 213.2338562011719 5.778900146484375 225.4875946044922 C 8.222442626953125 237.428955078125 11.86856079101562 249.1748504638672 16.61599731445312 260.3989868164062 C 21.27740478515625 271.4197998046875 27.04705810546875 282.0495910644531 33.76470947265625 291.9929809570312 C 40.41885375976562 301.8424682617188 48.06076049804688 311.1044921875 56.4781494140625 319.5218505859375 C 64.8955078125 327.9392395019531 74.15756225585938 335.5811462402344 84.00698852539062 342.2352905273438 C 93.95040893554688 348.9529418945312 104.5802001953125 354.7225952148438 115.6010131835938 359.3840026855469 C 126.8251495361328 364.1314392089844 138.571044921875 367.7775573730469 150.5124053955078 370.2210998535156 C 162.7661437988281 372.7286071777344 175.3788452148438 374 188 374 C 200.6211547851562 374 213.2338562011719 372.7286071777344 225.4875946044922 370.2210998535156 C 237.428955078125 367.7775573730469 249.1748504638672 364.1314392089844 260.3989868164062 359.3840026855469 C 271.4197998046875 354.7225952148438 282.0495910644531 348.9529418945312 291.9929809570312 342.2352905273438 C 301.8424682617188 335.5811462402344 311.1044921875 327.9392395019531 319.5218505859375 319.5218505859375 C 327.9392395019531 311.1044921875 335.5811462402344 301.8424682617188 342.2352905273438 291.9929809570312 C 348.9529418945312 282.0495910644531 354.7225952148438 271.4197998046875 359.3840026855469 260.3989868164062 C 364.1314392089844 249.1748504638672 367.7775573730469 237.428955078125 370.2210998535156 225.4875946044922 C 372.7286071777344 213.2338562011719 374 200.6211547851562 374 188 C 374 175.3788452148438 372.7286071777344 162.7661437988281 370.2210998535156 150.5124053955078 C 367.7775573730469 138.571044921875 364.1314392089844 126.8251495361328 359.3840026855469 115.6010131835938 C 354.7225952148438 104.5802001953125 348.9529418945312 93.95040893554688 342.2352905273438 84.00698852539062 C 335.5811462402344 74.15756225585938 327.9392395019531 64.8955078125 319.5218505859375 56.4781494140625 C 311.1044921875 48.06076049804688 301.8424682617188 40.41885375976562 291.9929809570312 33.76470947265625 C 282.0495910644531 27.04705810546875 271.4197998046875 21.27740478515625 260.3989868164062 16.61599731445312 C 249.1748504638672 11.86856079101562 237.428955078125 8.222442626953125 225.4875946044922 5.778900146484375 C 213.2338562011719 3.271392822265625 200.6211547851562 2 188 2 M 188 0 C 291.8295593261719 0 376 84.17044067382812 376 188 C 376 291.8295593261719 291.8295593261719 376 188 376 C 84.17044067382812 376 0 291.8295593261719 0 188 C 0 84.17044067382812 84.17044067382812 0 188 0 Z" stroke="none" fill="#fff"/>
    </g>
  </g>
</svg>
