<svg xmlns="http://www.w3.org/2000/svg" xmlns:xlink="http://www.w3.org/1999/xlink" width="810" height="293" viewBox="0 0 810 293">
  <defs>
    <clipPath id="clip-path">
      <rect id="Rectangle_102" data-name="Rectangle 102" width="810" height="293" transform="translate(-8 837)" fill="none" stroke="#707070" stroke-width="1"/>
    </clipPath>
  </defs>
  <g id="Groupe_de_masques_63" data-name="Groupe de masques 63" transform="translate(8 -837)" clip-path="url(#clip-path)">
    <path id="Union_7" data-name="Union 7" d="M-1798-6775.5c0-33.432,33.875-64.625,92.479-91-58.6-26.375-92.479-57.568-92.479-91,0-94.717,271.987-171.5,607.5-171.5S-583-7052.217-583-6957.5c0,33.432-33.875,64.625-92.479,91,58.6,26.375,92.479,57.568,92.479,91,0,94.717-271.987,171.5-607.5,171.5S-1798-6680.782-1798-6775.5Z" transform="translate(1588.981 8055)" fill="#f8f5ef"/>
    <path id="Tracé_420" data-name="Tracé 420" d="M1.413,231.369s39.7,119.52,136.781,20.874,123.339-68.28,170.957-81.882,65.629-90.645,41.819-118.5S251.615-41.387,193.159,37.88s-57.751,123.407-132.7,132.48S1.413,231.369,1.413,231.369Z" transform="translate(14.241 1282.935) rotate(-118)" fill="#c6d26e"/>
    <path id="Tracé_425" data-name="Tracé 425" d="M10180.193,8363.364c-95.549-29.289-203.834-99.428-239.48,85.87s154.559,181.244,239.48,182.648,364.691-61.437,357.275-158.858S10275.746,8392.646,10180.193,8363.364Z" transform="translate(8705.358 11421.924) rotate(-168)" fill="#964e75"/>
  </g>
</svg>
