<svg id="Inflorescence" xmlns="http://www.w3.org/2000/svg" xmlns:xlink="http://www.w3.org/1999/xlink" width="34.255" height="30.636" viewBox="0 0 34.255 30.636">
  <defs>
    <clipPath id="clip-path">
      <rect id="Rectangle_39" data-name="Rectangle 39" width="34.255" height="30.636" fill="none"/>
    </clipPath>
  </defs>
  <g id="Groupe_47" data-name="Groupe 47" clip-path="url(#clip-path)">
    <path id="Tracé_300" data-name="Tracé 300" d="M14.208,30.275a23.169,23.169,0,0,1-3.35.359,4.976,4.976,0,0,1-4.778-3.67,3.029,3.029,0,0,0-2.233-2.339A5.268,5.268,0,0,1,.664,16.95a3.094,3.094,0,0,0-.019-3.227A5.3,5.3,0,0,1,3.906,6.06a2.811,2.811,0,0,0,2.16-2.079A5.289,5.289,0,0,1,13.878.709a2.763,2.763,0,0,0,2.991.011A5.284,5.284,0,0,1,24.68,4a2.881,2.881,0,0,0,2.136,2.1,5.291,5.291,0,0,1,3.175,7.851,2.867,2.867,0,0,0,.064,3.012c1.623,3.281.1,6.573-3.358,7.864a3.262,3.262,0,0,0-1.788,1.466c-1.673,4.023-3.654,5.035-8.629,3.788a8.74,8.74,0,0,0-2.071.192M15.449,9.322a6.011,6.011,0,0,0-6.177,5.932,6.072,6.072,0,1,0,12.141.226,6.026,6.026,0,0,0-5.965-6.158" transform="translate(0 0)" fill="#964e75"/>
    <path id="Tracé_301" data-name="Tracé 301" d="M46.2,40.237a6.1,6.1,0,1,1-6.177,5.932A6.026,6.026,0,0,1,46.2,40.237m3.931,6.127a4.052,4.052,0,0,0-8.1-.158,4.052,4.052,0,1,0,8.1.158" transform="translate(-30.749 -30.915)" fill="#fff"/>
    <path id="Tracé_302" data-name="Tracé 302" d="M56.78,53.3a4.052,4.052,0,1,1-8.1-.158,4.052,4.052,0,0,1,8.1.158" transform="translate(-37.4 -37.851)" fill="#8e9f31"/>
  </g>
</svg>
