<svg id="Location" xmlns="http://www.w3.org/2000/svg" width="22" height="31.429" viewBox="0 0 22 31.429">
  <g id="Location-2" data-name="Location">
    <path id="Path_34175" d="M5.55,1.472A10.826,10.826,0,0,1,16.6,1.563,11.52,11.52,0,0,1,22,11.411c-.078,3.992-2.273,7.745-5.017,10.646a29.428,29.428,0,0,1-5.278,4.431,1.845,1.845,0,0,1-.64.226,1.289,1.289,0,0,1-.614-.186,29.1,29.1,0,0,1-7.6-7.146A14.582,14.582,0,0,1,0,11.211H0l.008-.43A11.235,11.235,0,0,1,5.55,1.472Zm6.876,6.44a3.686,3.686,0,0,0-4.076.816,3.858,3.858,0,0,0-.816,4.149,3.736,3.736,0,0,0,3.453,2.353,3.676,3.676,0,0,0,2.645-1.1,3.857,3.857,0,0,0-1.206-6.216Z" transform="translate(0 0)" fill="#964e75"/>
    <ellipse id="Ellipse_743" cx="8" cy="1.5" rx="8" ry="1.5" transform="translate(3 28.429)" fill="#8e9f31"/>
  </g>
</svg>
