<svg id="Ne_Pas_Confondre" data-name="Ne Pas Confondre" xmlns="http://www.w3.org/2000/svg" width="30" height="27.25" viewBox="0 0 30 27.25">
  <g id="Group">
    <path id="Fill-5" d="M4.085,27.25H4.026A4.242,4.242,0,0,1,.312,21.414L11.294,2.174a4.244,4.244,0,0,1,7.419.014L29.623,21.28a4.308,4.308,0,0,1,.372,1.511,4.244,4.244,0,0,1-4.022,4.458H4.085Z" transform="translate(0 0)" fill="#964e75"/>
    <path id="Combined-Shape" d="M10.437,15.511a1.316,1.316,0,1,1-1.313,1.32A1.31,1.31,0,0,1,10.437,15.511Zm0-9.366A1.315,1.315,0,0,1,11.75,7.458h0V11.7a1.313,1.313,0,0,1-2.625,0h0V7.458A1.315,1.315,0,0,1,10.437,6.145Z" transform="translate(4.563 3.073)" fill="#fff"/>
  </g>
</svg>
