<svg id="Periode" xmlns="http://www.w3.org/2000/svg" xmlns:xlink="http://www.w3.org/1999/xlink" width="31.502" height="35.497" viewBox="0 0 31.502 35.497">
  <defs>
    <clipPath id="clip-path">
      <rect id="Rectangle_41" data-name="Rectangle 41" width="31.502" height="35.497" transform="translate(0 0)" fill="none"/>
    </clipPath>
  </defs>
  <g id="Groupe_53" data-name="Groupe 53" transform="translate(0 0)" clip-path="url(#clip-path)">
    <path id="Exclusion_1" data-name="Exclusion 1" d="M-2654.373-1222h-24.75a3.385,3.385,0,0,1-3.375-3.375v-18.281a.846.846,0,0,1,.843-.844h29.813a.847.847,0,0,1,.844.844v18.281A3.383,3.383,0,0,1-2654.373-1222Zm-18.371-12.215a.686.686,0,0,0-.252.028,6.581,6.581,0,0,1,.487,1.9,5.173,5.173,0,0,0,.468,1.748c1.736,2.639,3.816,2.844,4.412,2.844a1.482,1.482,0,0,0,.166-.007,7.2,7.2,0,0,0-3.567-5.449,6.857,6.857,0,0,1,3.159,2.233,4.939,4.939,0,0,1,1.137,2.737,3.919,3.919,0,0,0-.477-3.629C-2668.687-1233.79-2672-1234.219-2672.744-1234.218Zm8.454-3.005,0,0a11,11,0,0,0-2.189,5.278c.052.053,1.258,1.35.506,3.874a7.438,7.438,0,0,0,3.988-4.743,7.1,7.1,0,0,0,.2-2.784c-.026-.136-.638-3.309-.674-4.156a11.559,11.559,0,0,0-5.041,3.756,6.547,6.547,0,0,0-1.081,2.113,4.343,4.343,0,0,1,1.376,1.039,6.965,6.965,0,0,1,2.918-4.38Z" transform="translate(2682.498 1257.5)" fill="#964e75" stroke="rgba(0,0,0,0)" stroke-width="1"/>
    <path id="Tracé_305" data-name="Tracé 305" d="M30.656,11.25H.844A.845.845,0,0,1,0,10.407V7.875A3.379,3.379,0,0,1,3.375,4.5H6.75V.844A.845.845,0,0,1,7.594,0h2.813a.845.845,0,0,1,.844.844V4.5h9V.844A.845.845,0,0,1,21.095,0h2.813a.845.845,0,0,1,.844.844V4.5h3.375A3.379,3.379,0,0,1,31.5,7.875v2.532a.844.844,0,0,1-.846.842h0Z" fill="#8e9f31"/>
  </g>
</svg>
