<?xml version="1.0"?>
<svg width="803" height="324" xmlns="http://www.w3.org/2000/svg" xmlns:svg="http://www.w3.org/2000/svg" data-name="RECTO HAUT">
 <defs>
  <clipPath id="clip-path">
   <rect data-name="Rectangle 101" fill="none" height="324" id="Rectangle_101" stroke="#707070" transform="translate(-4 -4)" width="803"/>
  </clipPath>
  <clipPath id="clip-path-2">
   <rect data-name="Rectangle 99" fill="#fff" height="372" id="Rectangle_99" stroke="#707070" transform="translate(1 2)" width="888" x="-88" y="-48"/>
  </clipPath>
 </defs>
 <g class="layer">
  <title>Layer 1</title>
  <g clip-path="url(#clip-path)" data-name="Groupe de masques 62" id="Groupe_de_masques_62">
   <g clip-path="url(#clip-path-2)" data-name="Groupe de masques 60" id="Groupe_de_masques_60">
    <path d="m-3.32,159.38c-182.85,-21.2 -193.46,-67.08 -193.46,-113.67c0,-24.18 33.31,-46.74 90.96,-65.83c-57.64,-19.08 -90.96,-41.64 -90.96,-65.83c0,-68.52 267.51,-124.06 597.5,-124.06s597.5,55.54 597.5,124.06c0,24.18 -33.32,46.74 -90.96,65.83c57.64,19.08 90.96,41.64 90.96,65.83c0,52.07 -260.5,100.77 -260.5,100.77s-266.93,25.3 -346.13,25.3c-105.6,0 -203.77,-23.02 -394.91,-12.4z" data-name="Union 6" fill="#f8f5ef" id="Union_6"/>
   </g>
   <path d="m737.2,-5.52s-5.58,-96.39 -95.55,-42.61s-103.17,26.08 -140.51,26.69s-65.5,54.1 -53.59,79.46s54.15,88.78 112.21,41.68s66.16,-79.92 122.52,-71.76s54.92,-33.46 54.92,-33.46z" data-name="Tracé 427" fill="#c6d26e" id="Tracé_427"/>
   <path d="m568.12,219.38s-28.77,92.02 74.18,74.6s105.51,13.24 140.58,26.28s80.22,-26.64 78.04,-54.65s-19.26,-102.61 -90.07,-79.8s-89.93,50.5 -139.68,22.34s-63.06,11.22 -63.06,11.22z" data-name="Tracé 429" fill="#964e75" id="Tracé_429"/>
   <g data-name="Tracé 418" fill="none" id="Tracé_418" transform="translate(524.981 -64)">
    <path d="m148.88,15a165.23,168 0 1 1 -165.23,168a165.23,168 0 0 1 165.23,-168z" id="svg_1"/>
    <path d="m148.88,17c-11.07,0 -22.15,1.13 -32.91,3.37c-10.47,2.18 -20.79,5.44 -30.64,9.67c-9.68,4.16 -19.01,9.31 -27.74,15.31c-8.65,5.94 -16.78,12.76 -24.17,20.27c-7.39,7.51 -14.09,15.78 -19.94,24.57c-5.9,8.87 -10.97,18.36 -15.06,28.2c-4.16,10.01 -7.37,20.5 -9.51,31.15c-2.2,10.94 -3.31,22.2 -3.31,33.46c0,11.26 1.11,22.52 3.31,33.46c2.14,10.65 5.35,21.14 9.51,31.15c4.09,9.84 9.16,19.33 15.06,28.2c5.84,8.79 12.55,17.06 19.94,24.57c7.39,7.51 15.52,14.33 24.17,20.27c8.72,6 18.06,11.15 27.74,15.31c9.85,4.23 20.16,7.49 30.64,9.67c10.76,2.24 21.83,3.37 32.91,3.37c11.07,0 22.15,-1.13 32.91,-3.37c10.47,-2.18 20.79,-5.44 30.64,-9.67c9.68,-4.16 19.01,-9.31 27.74,-15.31c8.65,-5.94 16.78,-12.76 24.17,-20.27c7.39,-7.51 14.09,-15.78 19.94,-24.57c5.9,-8.87 10.97,-18.36 15.06,-28.2c4.16,-10.01 7.37,-20.5 9.51,-31.15c2.2,-10.94 3.31,-22.2 3.31,-33.46c0,-11.26 -1.11,-22.52 -3.31,-33.46c-2.14,-10.65 -5.35,-21.14 -9.51,-31.15c-4.09,-9.84 -9.16,-19.33 -15.06,-28.2c-5.84,-8.79 -12.55,-17.06 -19.94,-24.57c-7.39,-7.51 -15.52,-14.33 -24.17,-20.27c-8.72,-6 -18.06,-11.15 -27.74,-15.31c-9.85,-4.23 -20.16,-7.49 -30.64,-9.67c-10.76,-2.24 -21.83,-3.37 -32.91,-3.37m0,-2c91.25,0 165.23,75.22 165.23,168c0,92.78 -73.98,168 -165.23,168c-91.25,0 -165.23,-75.22 -165.23,-168c0,-92.78 73.98,-168 165.23,-168z" fill="#fff" id="svg_2"/>
   </g>
   <g data-name="Tracé 432" fill="none" id="Tracé_432" transform="translate(521.981 -108)">
    <path d="m168.55,15c102.12,0 184.91,84.17 184.91,188s-82.78,188 -184.91,188s-184.91,-84.17 -184.91,-188s82.78,-188 184.91,-188z" id="svg_3"/>
    <path d="m168.55,17c-12.41,0 -24.81,1.27 -36.87,3.78c-11.74,2.44 -23.29,6.09 -34.34,10.84c-10.84,4.66 -21.29,10.43 -31.07,17.14c-9.69,6.66 -18.8,14.3 -27.08,22.72c-8.28,8.42 -15.8,17.68 -22.35,27.53c-6.6,9.94 -12.27,20.57 -16.86,31.59c-4.67,11.23 -8.26,22.97 -10.66,34.91c-2.47,12.26 -3.72,24.87 -3.72,37.49c0,12.62 1.25,25.23 3.72,37.49c2.4,11.94 5.99,23.68 10.66,34.91c4.58,11.02 10.26,21.65 16.86,31.59c6.55,9.85 14.06,19.11 22.35,27.53c8.28,8.42 17.39,16.06 27.08,22.72c9.78,6.71 20.23,12.48 31.07,17.14c11.05,4.75 22.59,8.4 34.34,10.84c12.06,2.51 24.46,3.78 36.87,3.78c12.41,0 24.81,-1.27 36.87,-3.78c11.74,-2.44 23.29,-6.09 34.34,-10.84c10.84,-4.66 21.29,-10.43 31.07,-17.14c9.69,-6.66 18.8,-14.3 27.08,-22.72c8.28,-8.42 15.8,-17.68 22.35,-27.53c6.6,-9.94 12.27,-20.57 16.86,-31.59c4.67,-11.23 8.26,-22.97 10.66,-34.91c2.47,-12.26 3.72,-24.87 3.72,-37.49c0,-12.62 -1.25,-25.23 -3.72,-37.49c-2.4,-11.94 -5.99,-23.68 -10.66,-34.91c-4.58,-11.02 -10.26,-21.65 -16.86,-31.59c-6.55,-9.85 -14.06,-19.11 -22.35,-27.53c-8.28,-8.42 -17.39,-16.06 -27.08,-22.72c-9.78,-6.71 -20.23,-12.48 -31.07,-17.14c-11.05,-4.75 -22.59,-8.4 -34.34,-10.84c-12.06,-2.51 -24.46,-3.78 -36.87,-3.78m0,-2c102.12,0 184.91,84.17 184.91,188c0,103.83 -82.78,188 -184.91,188c-102.12,0 -184.91,-84.17 -184.91,-188c0,-103.83 82.78,-188 184.91,-188z" fill="#fff" id="svg_4"/>
   </g>
  </g>
 </g>
</svg>