<svg id="Tige" xmlns="http://www.w3.org/2000/svg" width="32.562" height="29.797" viewBox="0 0 32.562 29.797">
  <g id="Groupe_24" data-name="Groupe 24" transform="translate(0 3.49)">
    <path id="Tracé_31" data-name="Tracé 31" d="M1910.089,1665.17s-5.423.6-9.822-6.086c-1.266-2.41-.723-4.941-2.049-7.833.723-.422,16.932,1.145,13.437,12.9-.121-3.495-3.314-8.617-9.219-10.666C1910.029,1658.482,1910.089,1665.17,1910.089,1665.17Z" transform="translate(-1898.219 -1651.191)" fill="#964e75"/>
  </g>
  <g id="Groupe_44" data-name="Groupe 44" transform="translate(19.343 13.204)">
    <path id="Tracé_31-2" data-name="Tracé 31" d="M1900.173,1664.457s5.146.572,9.321-5.775c1.2-2.287.686-4.689,1.944-7.434-.686-.4-16.069,1.086-12.752,12.237.115-3.317,3.145-8.177,8.749-10.121C1900.23,1658.11,1900.173,1664.457,1900.173,1664.457Z" transform="translate(-1898.219 -1651.191)" fill="#964e75"/>
  </g>
  <g id="Rectangle_38" data-name="Rectangle 38" transform="translate(15.636)" fill="#8e9f31" stroke="#8e9f31" stroke-width="1">
    <rect width="2.086" height="29.797" stroke="none"/>
    <rect x="0.5" y="0.5" width="1.086" height="28.797" fill="none"/>
  </g>
</svg>
