<svg id="VERSO_BAS" data-name="VERSO BAS" xmlns="http://www.w3.org/2000/svg" xmlns:xlink="http://www.w3.org/1999/xlink" width="809" height="218" viewBox="0 0 809 218">
  <defs>
    <clipPath id="clip-path">
      <rect id="Rectangle_104" data-name="Rectangle 104" width="809" height="218" transform="translate(-7 912)" fill="none" stroke="#707070" stroke-width="1"/>
    </clipPath>
    <clipPath id="clip-path-2">
      <rect id="Rectangle_94" data-name="Rectangle 94" width="838" height="371" transform="translate(2556 17146)" fill="#fff" stroke="#707070" stroke-width="1"/>
    </clipPath>
  </defs>
  <g id="Groupe_de_masques_64" data-name="Groupe de masques 64" transform="translate(7 -912)" clip-path="url(#clip-path)">
    <g id="Groupe_de_masques_57" data-name="Groupe de masques 57" transform="matrix(0.996, 0.087, -0.087, 0.996, -1066.14, -16447.336)" clip-path="url(#clip-path-2)">
      <path id="Union_11" data-name="Union 11" d="M445-15629.676c0-11.1,11.434-21.758,32.514-31.7-21.08-9.945-32.514-20.607-32.514-31.7,0-6.951,4.49-13.734,13.029-20.277-8.539-6.541-13.029-13.324-13.029-20.277,0-11.1,11.434-21.758,32.514-31.7-21.08-9.945-32.514-20.607-32.514-31.7,0-54.1,271.99-97.963,607.5-97.963s607.5,43.861,607.5,97.963c0,11.1-11.438,21.76-32.514,31.7,21.08,9.943,32.514,20.605,32.514,31.7,0,6.953-4.49,13.736-13.029,20.277,8.539,6.543,13.029,13.326,13.029,20.277,0,11.1-11.434,21.758-32.514,31.7,21.076,9.941,32.514,20.607,32.514,31.7,0,54.1-271.986,97.963-607.5,97.963S445-15575.572,445-15629.676Z" transform="matrix(-0.998, -0.07, 0.07, -0.998, 5105.736, 1834.934)" fill="#f8f5ef"/>
      <path id="Tracé_453" data-name="Tracé 453" d="M-40.036,738.82c92.1,4.958,130,.257,202.95-19.288C295.406,680.894,394.4,648.619,512.54,670.255c94.555,12.023,190.821-49.2,270.45-12.137l5.983,37.774L784.9,883.419H-26.607" transform="matrix(0.998, 0.07, -0.07, 0.998, 2651.009, 16483.451)" fill="#f8f5ef"/>
    </g>
  </g>
</svg>
